<svg width="12" height="8" viewBox="0 0 12 8" fill="none" xmlns="http://www.w3.org/2000/svg">
<rect width="12" height="8" fill="#E5E5E5"/>
<rect x="-55" y="-48" width="1440" height="900" fill="white"/>
<path d="M-1.00115 14.4712C-1.77762 14.4712 -2.41291 13.8359 -2.41291 13.0594C-2.41291 7.6241 -6.85997 3.17705 -12.2953 3.17705C-13.0717 3.17705 -13.707 2.54175 -13.707 1.76528C-13.707 0.98881 -13.0717 0.353516 -12.2953 0.353516C-5.27174 0.353516 0.410616 6.03587 0.410616 13.0594C0.410616 13.8359 -0.224678 14.4712 -1.00115 14.4712Z" fill="#1F2041" fill-opacity="0.25"/>
<path d="M11.7068 1.76528C11.7068 2.54175 11.0715 3.17704 10.295 3.17704C6.9421 3.17704 3.9421 4.87116 2.17739 7.44763C1.78915 6.4594 1.33033 5.54175 0.765625 4.69469C3.09504 2.01234 6.51857 0.353516 10.295 0.353516C11.0715 0.353516 11.7068 0.98881 11.7068 1.76528Z" fill="#1F2041" fill-opacity="0.25"/>
<path d="M-1 30C-14.2353 30 -25 19.2353 -25 6C-25 -7.23529 -14.2353 -18 -1 -18C12.2353 -18 23 -7.23529 23 6C23 19.2353 12.2353 30 -1 30ZM-1 -15.1765C-12.6824 -15.1765 -22.1765 -5.68235 -22.1765 6C-22.1765 17.6824 -12.6824 27.1765 -1 27.1765C10.6824 27.1765 20.1765 17.6824 20.1765 6C20.1765 -5.68235 10.6824 -15.1765 -1 -15.1765Z" fill="#1F2041" fill-opacity="0.25"/>
</svg>
